<svg height="448pt" viewBox="0 0 448.09831 448" width="448pt" xmlns="http://www.w3.org/2000/svg"><path d="m8.097656 272.050781h96c4.417969 0 8 3.582031 8 8v160c0 4.417969-3.582031 8-8 8h-96c-4.417968 0-7.9999998-3.582031-7.9999998-8v-160c0-4.417969 3.5820318-8 7.9999998-8zm0 0"/><path d="m344.097656 192.050781h96c4.417969 0 8 3.582031 8 8v240c0 4.417969-3.582031 8-8 8h-96c-4.417968 0-8-3.582031-8-8v-240c0-4.417969 3.582032-8 8-8zm0 0"/><path d="m176.097656 232.050781h96c4.417969 0 8 3.582031 8 8v200c0 4.417969-3.582031 8-8 8h-96c-4.417968 0-8-3.582031-8-8v-200c0-4.417969 3.582032-8 8-8zm0 0"/><path d="m447.539062 5.257812c-.109374-.273437-.230468-.539062-.367187-.800781-.304687-.597656-.679687-1.160156-1.121094-1.664062-.714843-.882813-1.628906-1.582031-2.671875-2.03125-.074218 0-.128906-.097657-.199218-.121094-.886719-.351563-1.832032-.539063-2.785157-.5507812-.121093.0156252-.199219-.0390626-.296875-.0390626h-32c-4.417968 0-8 3.5820308-8 7.9999998s3.582032 8 8 8h12.6875l-132.6875 132.6875-70.34375-70.34375c-3.125-3.125-8.1875-3.125-11.3125 0l-82.34375 82.34375-38.34375-38.34375c-3.125-3.125-8.1875-3.125-11.3125 0l-72 72c-2.078125 2.007813-2.914062 4.980469-2.179687 7.777344.730469 2.796875 2.914062 4.984375 5.710937 5.714844s5.773438-.101563 7.78125-2.179688l66.34375-66.347656 38.34375 38.347656c3.125 3.121094 8.1875 3.121094 11.3125 0l82.34375-82.347656 70.34375 70.347656c3.125 3.121094 8.1875 3.121094 11.3125 0l138.34375-138.347656v12.691406c0 4.417969 3.582032 8 8 8 4.417969 0 8-3.582031 8-8v-32c-.015625-.957031-.207031-1.902343-.558594-2.792969zm0 0"/></svg>